<svg width="641" height="845" viewBox="0 0 641 845" fill="none" xmlns="http://www.w3.org/2000/svg">
<g clip-path="url(#clip0)">
<path d="M347.68 390.443C375.475 417.812 371.022 473.612 338.954 499.616C306.886 525.62 257.045 523.09 229.794 490.706C202.542 458.322 207.864 407.294 238.063 380.627C268.263 353.96 323.22 355.654 347.68 390.443ZM247.415 473.901C251.736 479.638 257.188 484.428 263.433 487.973C269.678 491.518 276.582 493.742 283.718 494.508C290.854 495.274 298.068 494.564 304.913 492.424C311.759 490.284 318.089 486.759 323.511 482.067C347.095 462.398 351.361 430.468 330.559 405.193C326.155 399.62 320.662 395.002 314.414 391.624C308.167 388.247 301.299 386.179 294.229 385.55C287.159 384.92 280.038 385.741 273.302 387.962C266.566 390.183 260.356 393.758 255.054 398.467C231.419 418.829 227.686 450.625 247.415 473.901Z" fill="#B1FF3C" fill-opacity="0.2"/>
</g>
<g clip-path="url(#clip1)">
<path d="M506.009 461.388C512.054 467.363 511.236 479.394 504.405 484.925C497.573 490.457 486.848 489.787 480.907 482.73C474.966 475.674 475.983 464.675 482.411 458.996C488.839 453.316 500.662 453.819 506.009 461.388ZM484.655 479.148C485.598 480.397 486.783 481.444 488.134 482.224C489.486 483.005 490.977 483.502 492.513 483.685C494.05 483.868 495.599 483.733 497.066 483.288C498.533 482.844 499.885 482.099 501.04 481.1C506.063 476.914 506.9 470.034 502.364 464.528C501.403 463.314 500.21 462.304 498.858 461.56C497.506 460.815 496.024 460.352 494.502 460.198C492.98 460.045 491.451 460.204 490.007 460.667C488.564 461.129 487.238 461.885 486.109 462.888C481.077 467.223 480.354 474.076 484.655 479.148Z" fill="#B1FF3C" fill-opacity="0.2"/>
</g>
<g clip-path="url(#clip2)">
<path d="M578.465 564.449C577.16 560.649 575.924 557.02 574.695 553.308L587.323 547.584C584.424 542.849 581.518 538.196 578.505 533.328L597.955 528.575C595.548 523.954 593.204 519.588 590.942 515.226C589.575 512.634 589.965 510.528 592.082 510.243C593.103 510.056 594.86 510.543 595.257 511.278C598.869 517.938 602.27 524.627 605.708 531.36L606.122 532.389L587.481 536.983C590.273 541.503 592.889 545.636 595.566 550.024L581.723 556.256C583.004 559.846 584.164 563.386 585.408 566.932C581.84 569.005 578.4 571.045 574.847 572.953C573.134 573.89 571.169 574.351 570.016 572.19C568.863 570.029 570.423 568.915 572.053 567.973C573.682 567.031 576.096 565.72 578.465 564.449Z" fill="#B1FF3C" fill-opacity="0.2"/>
</g>
<path d="M469.046 531.745L473.045 579.423C473.208 582.353 472.758 584.983 469.257 585.167C465.756 585.35 464.732 582.927 464.443 579.988C463.473 568.309 462.318 556.552 461.542 544.824C461.408 541.515 459.913 541.151 457.363 541.341C445.813 542.322 434.263 543.302 422.704 544.408C419.64 544.688 416.846 544.734 416.429 540.96C416.013 537.187 418.552 536.298 421.616 536.018L469.046 531.745Z" fill="#B1FF3C" fill-opacity="0.2"/>
<g clip-path="url(#clip3)">
<path d="M277.302 635.009C274.587 636.956 272.657 638.422 270.644 639.787C268.63 641.153 265.631 642.39 263.04 641.022C260.45 639.654 259.162 637.205 259.622 634.05C259.841 632.537 259.885 631.002 259.752 629.479C259.579 627.965 258.939 626.501 258.695 624.945C258.452 623.388 258.453 621.595 258.78 621.459C260.071 621.099 262.038 620.819 262.917 621.511C265.456 623.429 265.65 626.312 265.333 629.313C265.016 632.315 265.233 633.758 265.174 636.581C268.285 634.541 270.699 632.843 273.223 631.359C278.243 628.276 282.988 630.935 283.035 636.78C283.059 639.703 283.082 642.625 283.064 646.394C285.033 645.098 286.249 644.158 287.574 643.43C289.727 642.152 291.818 640.35 294.069 640.005C298.684 639.287 301.397 642.719 301.064 648.473C300.931 651.492 300.248 654.459 302.065 657.382C302.45 658.009 302.009 659.965 301.381 660.35C300.86 660.603 300.288 660.734 299.708 660.735C299.128 660.735 298.556 660.605 298.034 660.353C295.684 658.989 295.046 656.508 295.145 653.856C295.244 651.204 295.374 648.425 295.541 645.039C292.133 647.089 289.505 648.896 286.742 650.377C281.899 652.939 277.228 650.084 277.274 644.636C277.265 642.547 277.566 640.505 277.614 638.402C277.643 637.499 277.431 636.592 277.302 635.009Z" fill="#B1FF3C" fill-opacity="0.2"/>
</g>
<g clip-path="url(#clip4)">
<path d="M232.726 220.98C243.047 216.296 249.092 208.486 249.863 196.715C250.085 193.091 249.121 190.715 245.586 190.342C242.05 189.968 241.514 193.051 241.363 195.691C241.127 202.757 237.925 208.072 232.278 211.996C224.41 217.398 211.439 214.854 205.965 205.531C204.609 202.959 203.646 200.196 203.112 197.337C202.418 194.469 201.886 191.535 198.165 192.096C194.445 192.658 194.312 195.576 194.65 198.494C196.846 216.886 216.648 228.39 232.726 220.98Z" fill="#B1FF3C" fill-opacity="0.2"/>
</g>
<g clip-path="url(#clip5)">
<path d="M464.791 391.204L446.851 312.16C472.972 306.447 498.858 300.596 525.861 294.458C531.965 320.775 537.835 346.952 543.918 373.571L464.791 391.204ZM528.285 363.395C524.33 346.549 520.546 330.751 517.066 314.974C516.077 310.763 514.299 310.028 510.389 311.032C499.473 313.735 488.392 316.183 477.379 318.513C472.304 319.618 467.319 320.302 462.265 321.103L474.768 375.644L528.285 363.395Z" fill="#B1FF3C" fill-opacity="0.2"/>
</g>
<defs>
<clipPath id="clip0">
<rect width="156" height="155" fill="white" transform="translate(280.705 549.8) rotate(-130.746)"/>
</clipPath>
<clipPath id="clip1">
<rect width="34" height="33" fill="white" transform="translate(492.003 495.61) rotate(-130.746)"/>
</clipPath>
<clipPath id="clip2">
<rect width="59" height="39" fill="white" transform="translate(618.582 538.351) rotate(139.254)"/>
</clipPath>
<clipPath id="clip3">
<rect width="38.2515" height="47.6616" fill="white" transform="translate(256.228 622.054) rotate(-13.1192)"/>
</clipPath>
<clipPath id="clip4">
<rect width="39.9677" height="53.8341" fill="white" transform="matrix(0.327226 0.944946 0.944946 -0.327226 192.434 192.716)"/>
</clipPath>
<clipPath id="clip5">
<rect width="114.808" height="114.358" fill="white" transform="translate(515.745 421.288) rotate(-149.441)"/>
</clipPath>
</defs>
</svg>
