<svg width="483" height="586" viewBox="0 0 483 586" fill="none" xmlns="http://www.w3.org/2000/svg">
<g clip-path="url(#clip0)">
<path d="M163.775 113.819C135.116 116.168 106.094 86.9002 107.001 56.5484C107.908 26.1965 133.302 -0.361318 164.501 1.29922e-05C195.699 0.361344 221.638 27.8225 222.001 57.4517C222.363 87.0808 194.974 116.891 163.775 113.819ZM165.408 17.8859C160.124 17.5393 154.826 18.2779 149.841 20.056C144.857 21.8341 140.292 24.6136 136.431 28.2221C132.57 31.8307 129.495 36.1911 127.396 41.0328C125.298 45.8745 124.221 51.0941 124.233 56.3677C123.87 78.9509 139.651 96.6561 163.775 97.1981C169.007 97.4201 174.229 96.5755 179.121 94.7161C184.014 92.8567 188.473 90.0217 192.227 86.3848C195.98 82.7479 198.948 78.3858 200.949 73.566C202.949 68.7461 203.941 63.57 203.862 58.355C203.862 35.4105 187.9 18.0666 165.408 17.8859Z" fill="#B1FF3C" fill-opacity="0.25"/>
</g>
<g clip-path="url(#clip1)">
<path d="M221.713 243.634C216.464 244.055 211.149 238.807 211.315 233.365C211.481 227.922 216.132 223.16 221.846 223.225C227.559 223.289 232.31 228.214 232.376 233.527C232.443 238.84 227.427 244.185 221.713 243.634ZM222.012 226.432C221.044 226.37 220.074 226.502 219.161 226.821C218.248 227.14 217.412 227.638 216.705 228.285C215.998 228.932 215.435 229.714 215.05 230.582C214.666 231.451 214.469 232.387 214.471 233.332C214.404 237.382 217.294 240.557 221.713 240.654C222.671 240.694 223.627 240.542 224.523 240.209C225.419 239.875 226.236 239.367 226.923 238.715C227.611 238.063 228.154 237.28 228.521 236.416C228.887 235.552 229.069 234.624 229.054 233.689C229.054 229.574 226.131 226.464 222.012 226.432Z" fill="#B1FF3C" fill-opacity="0.25"/>
</g>
<g clip-path="url(#clip2)">
<path d="M144.05 235.969C146.361 236.893 148.564 237.78 150.803 238.704L148.383 246.945C151.778 247.499 155.136 248.017 158.639 248.571L153.006 259.62C156.147 260.359 159.145 261.025 162.106 261.727C163.875 262.133 164.706 263.168 163.984 264.277C163.659 264.831 162.72 265.459 162.214 265.348C157.628 264.35 153.114 263.242 148.564 262.133L147.914 261.911L153.295 251.306C150.044 250.788 147.047 250.345 143.905 249.827L146.578 240.811C144.375 239.961 142.244 239.074 140.078 238.224C140.547 235.711 140.98 233.272 141.522 230.833C141.775 229.65 142.353 228.542 143.833 228.874C145.314 229.207 145.206 230.389 144.989 231.535C144.772 232.681 144.411 234.343 144.05 235.969Z" fill="#B1FF3C" fill-opacity="0.25"/>
</g>
<path d="M322.764 151.968L298.774 134.571C297.334 133.463 296.281 132.188 297.611 130.471C298.94 128.753 300.492 129.252 301.987 130.305C307.86 134.571 313.844 138.781 319.661 143.158C321.268 144.433 322.044 143.879 322.986 142.604C327.196 136.787 331.407 130.969 335.562 125.097C336.67 123.545 337.778 122.216 339.717 123.545C341.657 124.875 341.047 126.426 339.939 127.978L322.764 151.968Z" fill="#B1FF3C" fill-opacity="0.25"/>
<g clip-path="url(#clip3)">
<path d="M-8.19092 142.284L47.6923 73C57.485 101.13 67.0165 128.609 76.8091 157L-8.19092 142.284ZM43.253 98.3953L14.7891 133.688L58.0072 140.981C53.0456 126.526 48.3452 112.981 43.253 98.3953Z" fill="#B1FF3C" fill-opacity="0.25"/>
</g>
<path d="M236.429 122.071C237.385 125.636 238.288 129.039 239.179 132.518L227.245 136.964C229.601 141.487 231.969 145.934 234.422 150.586L216.298 153.709C218.211 158.096 220.082 162.246 221.878 166.385C222.967 168.848 222.476 170.753 220.518 170.88C219.571 170.986 217.991 170.429 217.674 169.73C214.786 163.398 212.094 157.054 209.37 150.666L209.056 149.697L226.428 146.668C224.156 142.349 222.021 138.396 219.845 134.206L232.926 129.372C231.979 126.001 231.14 122.684 230.225 119.356C233.626 117.682 236.907 116.03 240.284 114.508C241.913 113.758 243.742 113.459 244.662 115.513C245.582 117.566 244.082 118.488 242.529 119.248C240.976 120.008 238.681 121.056 236.429 122.071Z" fill="#B1FF3C" fill-opacity="0.25"/>
<g clip-path="url(#clip4)">
<path d="M270.194 271.439L314.544 294.979C306.664 309.547 298.943 324.062 290.906 339.216C276.088 331.441 261.429 323.611 246.477 315.703L270.194 271.439ZM257.573 312.481C267.078 317.436 276.023 322.048 284.834 326.793C287.21 328.032 288.274 327.495 289.384 325.254C292.529 319.038 295.86 312.848 299.219 306.737C300.753 303.909 302.447 301.293 304.115 298.597L273.463 282.412L257.573 312.481Z" fill="#B1FF3C" fill-opacity="0.25"/>
</g>
<g clip-path="url(#clip5)">
<path d="M436.856 233.646L438.756 180.529C453.537 190.349 467.958 199.955 482.832 209.898L436.856 233.646ZM445.741 194.197L444.775 221.253L468.083 209.089C460.522 204.017 453.412 199.284 445.741 194.197Z" fill="#B1FF3C" fill-opacity="0.25"/>
</g>
<path d="M26.2311 281.845C26.6406 277.25 26.8469 273.909 27.2329 270.572C27.6189 267.235 29.0286 262.982 32.7948 261.505C36.5611 260.028 40.2836 260.887 43.1692 264.212C44.5551 265.806 46.1206 267.235 47.8347 268.469C49.574 269.652 51.6828 270.302 53.5307 271.45C55.3785 272.599 57.2535 274.215 57.101 274.68C56.3147 276.356 54.8336 278.666 53.3182 278.962C49.023 279.89 45.8325 277.494 42.9775 274.457C40.1225 271.42 38.4171 270.346 35.5181 267.74C34.8476 272.833 34.4482 276.889 33.7266 280.867C32.426 288.898 25.3681 291.466 19.2107 286.247C16.132 283.637 13.0534 281.028 9.12702 277.611C8.70712 280.84 8.59556 282.959 8.16193 285.001C7.55899 288.406 7.55956 292.218 5.892 294.884C2.4823 300.359 -3.55226 300.104 -9.27232 294.57C-12.3104 291.709 -14.7993 288.319 -19.4948 287.586C-20.4983 287.424 -22.1462 285.2 -21.9837 284.196C-21.7781 283.423 -21.4002 282.706 -20.8784 282.099C-20.3565 281.492 -19.7042 281.011 -18.9703 280.692C-15.4244 279.462 -12.2543 281.031 -9.56894 283.525C-6.88354 286.019 -4.09302 288.66 -0.702355 291.886C0.225739 286.474 0.703098 282.095 1.64493 277.87C3.32874 270.493 10.5257 268.18 16.1847 273.138C18.3784 275.012 20.2433 277.168 22.3998 279.113C23.3187 279.957 24.4578 280.554 26.2311 281.845Z" fill="#B1FF3C" fill-opacity="0.15"/>
<defs>
<clipPath id="clip0">
<rect width="115" height="114" fill="white" transform="translate(107)"/>
</clipPath>
<clipPath id="clip1">
<rect width="21.0615" height="20.4421" fill="white" transform="translate(211.315 223.225)"/>
</clipPath>
<clipPath id="clip2">
<rect width="36.5479" height="24.1588" fill="white" transform="translate(140.078 265.348) rotate(-90)"/>
</clipPath>
<clipPath id="clip3">
<rect width="85" height="84" fill="white" transform="translate(-8.19092 73)"/>
</clipPath>
<clipPath id="clip4">
<rect width="71.1186" height="70.8397" fill="white" transform="translate(235.474 283.189) rotate(-18.6957)"/>
</clipPath>
<clipPath id="clip5">
<rect width="51" height="50" fill="white" transform="translate(412 200.738) rotate(-37.0634)"/>
</clipPath>
</defs>
</svg>
